<svg width="14" height="12" viewBox="0 0 14 12" fill="none" xmlns="http://www.w3.org/2000/svg">
<path d="M7.66667 8.66663V9.33329C7.66667 9.86373 7.45595 10.3724 7.08088 10.7475C6.70581 11.1226 6.1971 11.3333 5.66667 11.3333H3C2.46957 11.3333 1.96086 11.1226 1.58579 10.7475C1.21071 10.3724 1 9.86373 1 9.33329V2.66663C1 2.13619 1.21071 1.62749 1.58579 1.25241C1.96086 0.87734 2.46957 0.666626 3 0.666626H5.66667C6.1971 0.666626 6.70581 0.87734 7.08088 1.25241C7.45595 1.62749 7.66667 2.13619 7.66667 2.66663V3.33329M10.3333 8.66663L13 5.99996L10.3333 8.66663ZM13 5.99996L10.3333 3.33329L13 5.99996ZM13 5.99996H3.66667H13Z" stroke="black" stroke-linecap="round" stroke-linejoin="round"/>
</svg>
